<svg xmlns="http://www.w3.org/2000/svg" data-name="Layer 1" width="786.81995" height="572.25773" viewBox="0 0 786.81995 572.25773" xmlns:xlink="http://www.w3.org/1999/xlink"><circle cx="458.32136" cy="74.18162" r="26.70075" fill="#f2f2f2"/><path d="M872.03753,661.02307c39.6877-30.22889,58.64352-81.02546,46.77635-129.48234q-.44231-1.806-.9647-3.60132c-9.96738-34.45331-39.21166-62.12954-74.30813-69.66333-33.33287-7.15933-70.83871,4.56065-91.68569,33.68333-12.83416,17.92338-18.30675,39.93755-20.76613,61.73546-1.71147,15.20317-2.71121,31.08371,3.26828,45.29972,5.28168,12.52513,15.04834,22.66678,27.06049,29.45359,11.72152,6.62348,25.1019,10.10461,38.60071,10.90458Z" transform="translate(-206.59003 -163.87113)" fill="#f2f2f2"/><path d="M831.87192,533.62905c-30.89969-22.17574-78.62126-10.9729-102.26625,17.767a78.78409,78.78409,0,0,0-16.88946,57.57537c1.20668,10.3097,4.76548,21.20138,13.53282,27.24408,9.2604,6.38343,21.48847,5.21072,32.20589,2.0282,18.48767-5.48777,34.01422-18.96912,42.91339-35.91248C811.542,582.97207,816.10832,559.35888,831.87192,533.62905Z" transform="translate(-206.59003 -163.87113)" fill="#fff"/><circle cx="594.87797" cy="142.59718" r="11.29295" fill="#3f3d56"/><polygon points="594.878 142.597 594.878 142.597 594.878 142.597 594.878 142.597" fill="#3f3d56"/><path d="M790.20118,413.80881a11.28048,11.28048,0,0,1,11.2954-11.2475c-.03574-.00082-.07089-.00879-.10663-.00879a11.29295,11.29295,0,0,0,0,22.58589c.03574,0,.07089-.008.10663-.00879A11.28047,11.28047,0,0,1,790.20118,413.80881Z" transform="translate(-206.59003 -163.87113)" fill="#3f3d56"/><circle cx="632.75189" cy="153.8901" r="11.29295" fill="#3f3d56"/><path d="M828.07494,425.10242a11.28047,11.28047,0,0,1,11.2954-11.24751c-.03575-.00082-.07089-.00879-.10664-.00879a11.29295,11.29295,0,1,0,0,22.58589c.03575,0,.07089-.008.10664-.00879A11.28047,11.28047,0,0,1,828.07494,425.10242Z" transform="translate(-206.59003 -163.87113)" fill="#3f3d56"/><circle cx="594.87797" cy="212.2" r="11.29295" fill="#3f3d56"/><path d="M790.20118,483.41161a11.28048,11.28048,0,0,1,11.2954-11.2475c-.03574-.00082-.07089-.00879-.10663-.00879a11.29295,11.29295,0,0,0,0,22.58589c.03574,0,.07089-.008.10663-.00879A11.28047,11.28047,0,0,1,790.20118,483.41161Z" transform="translate(-206.59003 -163.87113)" fill="#3f3d56"/><circle cx="632.75189" cy="223.49293" r="11.29295" fill="#3f3d56"/><path d="M828.07494,494.70522a11.28047,11.28047,0,0,1,11.2954-11.2475c-.03575-.00082-.07089-.00879-.10664-.00879a11.29295,11.29295,0,1,0,0,22.58589c.03575,0,.07089-.008.10664-.00879A11.28047,11.28047,0,0,1,828.07494,494.70522Z" transform="translate(-206.59003 -163.87113)" fill="#3f3d56"/><circle cx="594.87797" cy="281.80282" r="11.29295" fill="#3f3d56"/><path d="M790.20118,553.01442a11.28048,11.28048,0,0,1,11.2954-11.2475c-.03574-.00082-.07089-.00879-.10663-.00879a11.29295,11.29295,0,0,0,0,22.58589c.03574,0,.07089-.008.10663-.00879A11.28047,11.28047,0,0,1,790.20118,553.01442Z" transform="translate(-206.59003 -163.87113)" fill="#3f3d56"/><circle cx="632.75189" cy="293.09574" r="11.29295" fill="#3f3d56"/><path d="M828.07494,564.30805a11.28047,11.28047,0,0,1,11.2954-11.24751c-.03575-.00082-.07089-.00879-.10664-.00879a11.29295,11.29295,0,1,0,0,22.58589c.03575,0,.07089-.008.10664-.00879A11.28047,11.28047,0,0,1,828.07494,564.30805Z" transform="translate(-206.59003 -163.87113)" fill="#3f3d56"/><path d="M790.20118,622.61723a11.28048,11.28048,0,0,1,11.2954-11.2475c-.03574-.00082-.07089-.00879-.10663-.00879a11.29295,11.29295,0,0,0,0,22.58589c.03574,0,.07089-.008.10663-.00879A11.28047,11.28047,0,0,1,790.20118,622.61723Z" transform="translate(-206.59003 -163.87113)" fill="#3f3d56"/><path d="M828.07494,633.91085a11.28047,11.28047,0,0,1,11.2954-11.2475c-.03575-.00082-.07089-.00879-.10664-.00879a11.29295,11.29295,0,1,0,0,22.58589c.03575,0,.07089-.008.10664-.00879A11.28047,11.28047,0,0,1,828.07494,633.91085Z" transform="translate(-206.59003 -163.87113)" fill="#3f3d56"/><circle cx="594.87797" cy="351.40563" r="11.29295" fill="#3f3d56"/><circle cx="632.75189" cy="362.69855" r="11.29295" fill="#3f3d56"/><circle cx="594.87797" cy="421.00844" r="11.29295" fill="#3f3d56"/><circle cx="632.75189" cy="432.30136" r="11.29295" fill="#3f3d56"/><path d="M481.23479,626.19752a11.28048,11.28048,0,0,1,11.29539-11.2475c-.03574-.00082-.07088-.00879-.10663-.00879a11.29295,11.29295,0,0,0,0,22.58589c.03575,0,.07089-.008.10663-.00879A11.28047,11.28047,0,0,1,481.23479,626.19752Z" transform="translate(-206.59003 -163.87113)" fill="#3f3d56"/><path d="M519.10855,637.49114a11.28048,11.28048,0,0,1,11.2954-11.2475c-.03574-.00082-.07089-.00879-.10663-.00879a11.29295,11.29295,0,0,0,0,22.58589c.03574,0,.07089-.008.10663-.00879A11.28047,11.28047,0,0,1,519.10855,637.49114Z" transform="translate(-206.59003 -163.87113)" fill="#3f3d56"/><circle cx="285.91158" cy="354.98592" r="11.29295" fill="#3f3d56"/><circle cx="323.78551" cy="366.27884" r="11.29295" fill="#3f3d56"/><circle cx="285.91158" cy="424.58873" r="11.29295" fill="#3f3d56"/><circle cx="323.78551" cy="435.88165" r="11.29295" fill="#3f3d56"/><path d="M593.26188,520.30953c-5.25458,18.40065-21.42131,30.00074-21.42131,30.00074s-8.73465-18.45059-3.48007-36.85123,21.42132-30.00074,21.42132-30.00074S598.51647,501.90889,593.26188,520.30953Z" transform="translate(-206.59003 -163.87113)" fill="#0d6efd"/><path d="M538.67985,520.30953c5.25458,18.40065,21.42131,30.00074,21.42131,30.00074s8.73465-18.45059,3.48007-36.85123-21.42132-30.00074-21.42132-30.00074S533.42526,501.90889,538.67985,520.30953Z" transform="translate(-206.59003 -163.87113)" fill="#0d6efd"/><path d="M545.84977,516.87142c14.40581,14.01462,16.18315,35.54674,16.18315,35.54674s-21.55872-1.17729-35.96453-15.19192-16.18315-35.54674-16.18315-35.54674S531.444,502.8568,545.84977,516.87142Z" transform="translate(-206.59003 -163.87113)" fill="#3f3d56"/><path d="M586.09197,516.87142c-14.40581,14.01462-16.18316,35.54674-16.18316,35.54674s21.55872-1.17729,35.96453-15.19192,16.18316-35.54674,16.18316-35.54674S600.49778,502.8568,586.09197,516.87142Z" transform="translate(-206.59003 -163.87113)" fill="#3f3d56"/><path d="M223.08446,705.81737c0,9.94112,7.3873,17.98476,16.5,17.98476h456.5c9.1127,0,16.5-8.04364,16.5-17.98476s-7.3873-17.98476-16.5-17.98476h-456.5C230.47176,687.83261,223.08446,695.87625,223.08446,705.81737Z" transform="translate(-206.59003 -163.87113)" fill="#e6e6e6"/><path d="M223.08446,705.81737c0,9.94112,7.3873,17.98476,16.5,17.98476h456.5c9.1127,0,16.5-8.04364,16.5-17.98476s-7.3873-17.98476-16.5-17.98476h-456.5C230.47176,687.83261,223.08446,695.87625,223.08446,705.81737Z" transform="translate(-206.59003 -163.87113)" fill="#e6e6e6"/><path d="M223.08446,705.81737c0,9.94112,7.3873,17.98476,16.5,17.98476h456.5c9.1127,0,16.5-8.04364,16.5-17.98476s-7.3873-17.98476-16.5-17.98476h-456.5C230.47176,687.83261,223.08446,695.87625,223.08446,705.81737Z" transform="translate(-206.59003 -163.87113)" fill="#e6e6e6"/><path d="M239.58446,705.81737c0,9.66127-7.16131,17.5-16,17.5s-16-7.83873-16-17.5,7.16131-17.5,16-17.5S239.58446,696.1561,239.58446,705.81737Z" transform="translate(-206.59003 -163.87113)" fill="#3f3d56"/><path d="M714.08446,705.81737c0,9.66127-7.16131,17.5-16,17.5s-16-7.83873-16-17.5,7.16131-17.5,16-17.5S714.08446,696.1561,714.08446,705.81737Z" transform="translate(-206.59003 -163.87113)" fill="#3f3d56"/><path d="M621.58446,705.81737c0,9.66127-7.16131,17.5-16,17.5s-16-7.83873-16-17.5,7.16131-17.5,16-17.5S621.58446,696.1561,621.58446,705.81737Z" transform="translate(-206.59003 -163.87113)" fill="#3f3d56"/><path d="M522.58446,705.81737c0,9.66127-7.16131,17.5-16,17.5s-16-7.83873-16-17.5,7.16131-17.5,16-17.5S522.58446,696.1561,522.58446,705.81737Z" transform="translate(-206.59003 -163.87113)" fill="#3f3d56"/><path d="M423.58446,705.81737c0,9.66127-7.16131,17.5-16,17.5s-16-7.83873-16-17.5,7.16131-17.5,16-17.5S423.58446,696.1561,423.58446,705.81737Z" transform="translate(-206.59003 -163.87113)" fill="#3f3d56"/><path d="M339.58446,705.81737c0,9.66127-7.16131,17.5-16,17.5s-16-7.83873-16-17.5,7.16131-17.5,16-17.5S339.58446,696.1561,339.58446,705.81737Z" transform="translate(-206.59003 -163.87113)" fill="#3f3d56"/><polygon points="81.638 567.273 93.898 567.272 99.73 519.984 81.636 519.985 81.638 567.273" fill="#ffb8b8"/><path d="M285.60045,727.14065l24.1438-.001h.001a15.38605,15.38605,0,0,1,15.38648,15.38623v.5l-39.53052.00146Z" transform="translate(-206.59003 -163.87113)" fill="#2f2e41"/><polygon points="34.638 567.273 46.898 567.272 52.73 519.984 34.636 519.985 34.638 567.273" fill="#ffb8b8"/><path d="M238.60045,727.14065l24.1438-.001h.001a15.38605,15.38605,0,0,1,15.38648,15.38623v.5l-39.53052.00146Z" transform="translate(-206.59003 -163.87113)" fill="#2f2e41"/><path d="M285.137,577.45552l-22.7749,51.91172-1.12936,67.76154-15.29851-1.12936-4.51743-72.27897-22.7749-44.6376,9.03491-101.64265,56.46818,3.38807Z" transform="translate(-206.59003 -163.87113)" fill="#2f2e41"/><path d="M232.0942,577.45552l-22.7749,51.91172-1.12936,67.76154-15.29851-1.12936-4.51743-72.27897-22.7749-44.6376,9.03491-101.64265,56.46818,3.38807Z" transform="translate(-206.59003 -163.87113)" fill="#2f2e41"/><circle cx="67.0474" cy="230.4202" r="24.56103" fill="#ffb8b8"/><path d="M273.88267,469.86815l-22.7749-1.12936c-7.92548-5.64312-10.16484-12.41378-9.03491-20.51619l-12.4229-6.77614c-9.62936,5.25165-11.95446,14.71,0,29.55109-15.95683,15.95685-33.63461,24.56094-30.68045,48.02567l2.25872,97.12522c38.08389,10.73756,76.16776,10.16485,114.25163-1.12936l-9.03491-95.99586c3.95431-22.33378-13.55224-33.06189-27.29232-47.46431Z" transform="translate(-206.59003 -163.87113)" fill="#0d6efd"/><path d="M214.06746,545.64614l-5.64743-45.76695,36.73216-14.16872-3.38807,61.5376Z" transform="translate(-206.59003 -163.87113)" fill="#ffb8b8"/><path d="M283.9476,545.64614l5.64743-45.76695-36.73216-14.16872,3.38807,61.5376Z" transform="translate(-206.59003 -163.87113)" fill="#ffb8b8"/><path d="M292.98251,485.16665l-9.03491-11.29363-10.16427,10.16427c-20.58245,6.63-30.11273,19.94348-30.68045,39.00988l30.68045,23.90425,19.38683-41.26859Z" transform="translate(-206.59003 -163.87113)" fill="#0d6efd"/><path d="M205.03255,485.16665l9.03491-11.29363,10.16427,10.16427c20.58245,6.63,30.11273,19.94348,30.68045,39.00988l-30.68045,23.90425-19.38683-41.26859Z" transform="translate(-206.59003 -163.87113)" fill="#0d6efd"/><path d="M251.48109,382.62786c-3.04473-2.25855-6.56836-3.45384-10.25844-3.45384-3.69021,0-7.21387,1.19529-10.25879,3.45422-6.08954,4.51568-8.24731,12.27307-5.07593,18.86426a13.10184,13.10184,0,0,0,3.81812,4.57178c2.48877,1.84674,6.5896,3.70288,11.51672,3.70288,4.92676,0,9.02734-1.85614,11.51611-3.70288a13.10056,13.10056,0,0,0,3.81836-4.57178C259.72839,394.90093,257.57062,387.14354,251.48109,382.62786Z" transform="translate(-206.59003 -163.87113)" fill="#2f2e41"/><path d="M269.18649,398.52423c-2.43043-10.32996-12.41473-17.7498-23.96265-17.7498a25.17431,25.17431,0,0,0-24.96216,25.33792c0,11.29389,7.51573,21.20966,17.96277,24.51526l1.29956-9.95432-2.439,9.95432a25.93055,25.93055,0,0,0,8.13883,1.28868,26.66761,26.66761,0,0,0,8.16808-1.28983l1.17627-9.94586-2.29956,9.94586a25.17615,25.17615,0,0,0,16.95786-24.52203Z" transform="translate(-206.59003 -163.87113)" fill="#2f2e41"/><path d="M992.41,736.12887h-381a1,1,0,0,1,0-2h381a1,1,0,0,1,0,2Z" transform="translate(-206.59003 -163.87113)" fill="#3f3d56"/></svg>
